# xmcd
#
# Track frame offsets:
# 150
# 17026
# 35160
# 48024
# 67054
# 85643
# 106319
# 125348
# 139609
# 154611
# 178803
# 193835
# 211118
# 230328
# 253020
# 271624
# 296942
# 312611
#
# Disc length: 4413 seconds
#
# Revision: 0
# Processed by: cddbd v1.4PL0 Copyright (c) Steve Scherf et al.
# Submitted via: Audion 2.6.0 (http://www.panic.com/audion/)
#
DISCID=02113b12
DTITLE=Various Artist - A Piece of the Action
DYEAR=1900
DGENRE=
TTITLE0=Paradigm-Teribithia
TTITLE1=mic.edu-Backwards and Halfway
TTITLE2=Pharaoh MC-Insight
TTITLE3=Jugga the Bully-Corrupt
TTITLE4=Moka Only-Worth the Wait
TTITLE5=Emanon-A List
TTITLE6=Dept. of Rec-Gonzoe of Stimmulation
TTITLE7=Infinite Cycle-What about the Music
TTITLE8=Sankofa-Stock Footage
TTITLE9=Xtracts of Slang-How Does it Feel
TTITLE10=SLS-Raw
TTITLE11=4-Zone-What U Do
TTITLE12=The Butta Babees feat. (MC Collizhun, Sekou Toure, and Nezrene Edwards)-Toe to Toe Remix
TTITLE13=Return to Sender-Butterflies
TTITLE14=Tak (Styles of Beyond-Rhyminphiqxion
TTITLE15=Themselves (Dose and Jel)-Thems My Peoples
TTITLE16=Lexicon-Keep on Movin
TTITLE17=iCON the MicKing-The End
EXTD=
EXTT0=
EXTT1=
EXTT2=
EXTT3=
EXTT4=
EXTT5=
EXTT6=
EXTT7=
EXTT8=
EXTT9=
EXTT10=
EXTT11=
EXTT12=
EXTT13=
EXTT14=
EXTT15=
EXTT16=
EXTT17=
PLAYORDER=
